<?xml version="1.0" encoding="utf-8"?>
<!-- Generator: Adobe Illustrator 25.0.0, SVG Export Plug-In . SVG Version: 6.00 Build 0)  -->
<svg version="1.1" xmlns="http://www.w3.org/2000/svg" xmlns:xlink="http://www.w3.org/1999/xlink" x="0px" y="0px"
	 viewBox="0 0 1755.41 457.77" style="enable-background:new 0 0 1755.41 457.77;" xml:space="preserve">
<style type="text/css">
	.st0{display:none;}
	.st1{display:inline;}
	.st2{fill:none;stroke:#A6D5E2;stroke-width:8.6;stroke-miterlimit:10;}
	.st3{fill:none;stroke:#35B0E6;stroke-width:8.6;stroke-miterlimit:10;}
	.st4{fill:none;stroke:#FFE062;stroke-width:8.6;stroke-miterlimit:10;}
	.st5{fill:none;stroke:#EE7731;stroke-width:8.6;stroke-miterlimit:10;}
	.st6{fill:#82F2EB;}
	.st7{fill:#FBD207;}
	.st8{clip-path:url(#SVGID_1_);}
	.st9{fill:none;stroke:#FE416D;stroke-width:8.6;stroke-miterlimit:10;}
	.st10{fill:none;stroke:#D52912;stroke-width:8.6;stroke-miterlimit:10;}
	.st11{fill:none;stroke:#33A226;stroke-width:8.6;stroke-miterlimit:10;}
	.st12{fill:none;stroke:#9CEBA9;stroke-width:8.6;stroke-miterlimit:10;}
	.st13{fill:#F5090D;}
	.st14{fill:#30F68A;}
	.st15{fill:#EBE6D7;}
</style>
<g id="Слой_2" class="st0">
	<rect x="-1430.27" y="-969.77" class="st1" width="4616.11" height="2397.3"/>
</g>
<g id="Layer_1">
	<g>
		<g>
			<polyline class="st2" points="324.1,457.56 324.1,180.53 324.1,180.53 324.1,68.19 			"/>
			<polyline class="st3" points="276.61,68.19 276.61,138.59 276.61,138.59 276.61,457.56 			"/>
			<polyline class="st4" points="388,389.46 388,180.61 388,156.52 388,68.19 			"/>
			<polyline class="st5" points="340.51,68.19 340.51,156.52 340.51,389.46 			"/>
		</g>
		<g>
			<polygon class="st6" points="276.61,68.19 276.61,138.59 276.61,138.59 276.61,457.56 324.1,457.56 324.1,180.53 324.1,180.53 
				324.1,68.19 			"/>
			<polygon class="st7" points="340.51,68.19 340.51,156.52 340.51,389.46 388,389.46 388,180.61 388,156.52 388,68.19 			"/>
		</g>
		<g>
			<defs>
				<path id="SVGID_3_" d="M318.57,490.91c-73.32,0-154.93-152.27-228.25-152.27L-48.96,76.69c73.32,0,311.83-120.41,385.15-120.41
					C665.55-96.57,1004.11,484.79,318.57,490.91z"/>
			</defs>
			<clipPath id="SVGID_1_">
				<use xlink:href="#SVGID_3_"  style="overflow:visible;"/>
			</clipPath>
			<g class="st8">
				<path class="st9" d="M340.51,453.25H486.7c53.08,0,96.27-43.19,96.27-96.27v-23.67c0-53.08-43.19-96.27-96.27-96.27H-43.69"/>
				<path class="st10" d="M-18.45,284.52H486.7c26.9,0,48.79,21.89,48.79,48.79v23.67c0,26.9-21.89,48.79-48.79,48.79H340.51"/>
				<path class="st11" d="M272.31,51.83H486.7c26.9,0,48.79,21.89,48.79,48.79v23.67c0,26.9-21.89,48.79-48.79,48.79h-564.4"/>
				<path class="st12" d="M-52.46,220.55H486.7c53.08,0,96.27-43.19,96.27-96.27v-23.67c0-53.08-43.19-96.27-96.27-96.27H272.31"/>
			</g>
		</g>
		<g>
			<path class="st13" d="M486.7,284.52c26.9,0,48.79,21.89,48.79,48.79v23.67c0,26.9-21.89,48.79-48.79,48.79H340.51v47.48H486.7
				c53.08,0,96.27-43.19,96.27-96.27v-23.67c0-53.08-43.19-96.27-96.27-96.27H36.3l25.25,47.48H486.7z"/>
			<path class="st14" d="M486.7,220.55c53.08,0,96.27-43.19,96.27-96.27v-23.67c0-53.08-43.19-96.27-96.27-96.27H272.31v47.48H486.7
				c26.9,0,48.79,21.89,48.79,48.79v23.67c0,26.9-21.89,48.79-48.79,48.79H2.29l25.25,47.48H486.7z"/>
		</g>
		<g>
			<path class="st15" d="M747.45,14.7c-11.83-5.44-25.71-8.15-41.65-8.15h-53.52h-25.81h-21.65l-0.29,213.59h47.46l0.11-82.85h53.52
				c15.82,0,29.68-2.69,41.58-8.08c11.9-5.38,21.15-12.98,27.75-22.77c6.6-9.79,9.9-21.25,9.92-34.37
				c0.02-13.22-3.26-24.73-9.83-34.52C768.47,27.75,759.27,20.14,747.45,14.7z M727.68,91.23c-5.32,4.85-12.25,7.27-20.8,7.27
				h-54.74l0.07-53.18h54.74c8.66,0,15.61,2.42,20.86,7.27c5.25,4.85,7.87,11.34,7.85,19.46C735.66,80,733,86.39,727.68,91.23z"/>
			<path class="st15" d="M968.92,126.27c10.4-5.29,18.52-12.73,24.37-22.33c5.84-9.6,8.78-20.81,8.79-33.64
				c0.02-12.83-2.85-24.04-8.61-33.64c-5.76-9.6-13.86-17.04-24.31-22.33c-10.45-5.29-22.65-7.93-36.62-7.93h-62.88h-28.58H822.2
				l-0.29,213.74h47.46l0.12-85.94h28.79l56.66,85.94h57.51l-60.06-88.02C958.32,130.8,963.84,128.86,968.92,126.27z M869.61,45.18
				h59.07c7.51,0,13.48,2.3,17.92,6.9c4.44,4.6,6.65,10.68,6.64,18.22c-0.13,7.54-2.42,13.61-6.87,18.22
				c-4.45,4.6-10.38,6.9-17.76,6.9h-59.07L869.61,45.18z"/>
			<path class="st15" d="M1084.6,212.57c13.79,6.51,29.92,9.77,48.4,9.77c18.47,0,34.62-3.25,48.43-9.77
				c13.81-6.51,24.53-15.69,32.17-27.54c7.64-11.85,11.47-25.66,11.49-41.43l0.08-60.52c0.02-15.87-3.77-29.7-11.38-41.5
				c-7.6-11.8-18.3-20.96-32.09-27.47c-13.79-6.51-29.93-9.77-48.4-9.77c-18.48,0-34.62,3.26-48.43,9.77
				c-13.81,6.51-24.53,15.67-32.17,27.47c-7.64,11.8-11.47,25.63-11.49,41.5l-0.08,60.52c-0.02,15.77,3.77,29.58,11.38,41.43
				C1060.11,196.88,1070.81,206.06,1084.6,212.57z M1090.41,82.05c0.02-11.36,3.93-20.44,11.73-27.25
				c7.8-6.81,18.17-10.21,31.11-10.21c12.93,0,23.29,3.4,31.08,10.21c7.79,6.81,11.67,15.89,11.66,27.25l-0.09,62.58
				c-0.02,11.26-3.93,20.32-11.73,27.18c-7.8,6.86-18.17,10.28-31.11,10.28c-12.93,0-23.29-3.43-31.08-10.28
				c-7.79-6.85-11.67-15.91-11.65-27.18L1090.41,82.05z"/>
			<polygon class="st15" points="1319.33,135.38 1418.23,135.38 1418.29,96.6 1319.38,96.6 1319.45,45.33 1437.41,45.33 
				1437.46,6.55 1319.5,6.55 1289.36,6.55 1272.04,6.55 1271.75,220.14 1319.21,220.14 			"/>
			<polygon class="st15" points="1519.57,6.55 1470.37,6.55 1470.08,220.14 1519.28,220.14 			"/>
			<polygon class="st15" points="1619.05,220.14 1666.51,220.14 1666.75,45.33 1735.34,45.33 1735.39,6.55 1550.74,6.55 
				1550.69,45.33 1619.29,45.33 			"/>
			<path class="st15" d="M747.31,245.62c-11.83-5.43-25.71-8.15-41.65-8.15h-53.52h-25.81h-21.65l-0.28,213.58h47.46l0.11-82.85
				h53.52c15.82,0,29.68-2.69,41.58-8.08c11.9-5.38,21.15-12.97,27.74-22.77c6.6-9.79,9.9-21.25,9.92-34.37
				c0.02-13.22-3.26-24.73-9.83-34.52C768.34,258.67,759.14,251.05,747.31,245.62z M727.55,322.15c-5.32,4.85-12.25,7.27-20.8,7.27
				h-54.74l0.07-53.17h54.74c8.66,0,15.61,2.42,20.86,7.27c5.25,4.85,7.87,11.34,7.86,19.46
				C735.53,310.91,732.86,317.3,727.55,322.15z"/>
			<path class="st15" d="M957.25,245.03c-13.79-6.51-29.93-9.77-48.4-9.77c-18.48,0-34.62,3.26-48.43,9.77
				c-13.81,6.51-24.53,15.67-32.17,27.47c-7.64,11.8-11.47,25.63-11.49,41.5l-0.08,60.52c-0.02,15.77,3.77,29.58,11.38,41.42
				c7.61,11.85,18.3,21.03,32.1,27.54c13.79,6.51,29.92,9.77,48.4,9.77c18.47,0,34.62-3.25,48.43-9.77
				c13.81-6.51,24.53-15.69,32.17-27.54c7.64-11.85,11.47-25.66,11.49-41.42l0.08-60.52c0.02-15.86-3.77-29.69-11.38-41.5
				C981.74,260.7,971.04,251.55,957.25,245.03z M951.45,375.54c-0.01,11.26-3.92,20.32-11.73,27.17
				c-7.8,6.86-18.17,10.28-31.11,10.28c-12.93,0-23.29-3.43-31.08-10.28c-7.79-6.85-11.67-15.91-11.66-27.17l0.08-62.58
				c0.02-11.36,3.92-20.44,11.73-27.25c7.8-6.81,18.17-10.21,31.11-10.21c12.93,0,23.29,3.4,31.08,10.21
				c7.79,6.81,11.67,15.89,11.66,27.25L951.45,375.54z"/>
			<polygon class="st15" points="1240.54,379.95 1192.57,237.47 1154.46,237.47 1106.12,379.95 1073.92,237.47 1025.07,237.47 
				1082.82,451.05 1127.51,451.05 1174.47,301.81 1218.96,451.05 1263.65,451.05 1321.96,237.47 1273.12,237.47 			"/>
			<polygon class="st15" points="1370.29,237.47 1353.14,237.47 1352.86,451.05 1370.01,451.05 1400.32,451.05 1521.57,451.05 
				1521.62,412.27 1400.37,412.27 1400.44,364.38 1502.63,364.38 1502.68,325.6 1400.49,325.6 1400.55,276.25 1521.8,276.25 
				1521.86,237.47 1400.6,237.47 			"/>
			<path class="st15" d="M1697.91,451.05h57.51l-60.07-88.01c5.94-1.32,11.46-3.26,16.54-5.85c10.4-5.29,18.52-12.73,24.37-22.33
				c5.84-9.6,8.77-20.81,8.79-33.64c0.02-12.83-2.86-24.04-8.62-33.64c-5.76-9.6-13.87-17.04-24.31-22.33
				c-10.45-5.29-22.65-7.93-36.63-7.93h-62.88h-28.58h-18.88l-0.28,213.73h47.46l0.11-85.93h28.79L1697.91,451.05z M1612.57,276.1
				h59.07c7.5,0,13.48,2.3,17.92,6.9c4.44,4.6,6.66,10.67,6.64,18.21c-0.13,7.54-2.42,13.61-6.87,18.21
				c-4.45,4.6-10.38,6.9-17.76,6.9h-59.07L1612.57,276.1z"/>
		</g>
	</g>
</g>
</svg>
